# xmcd
#
# Track frame offsets:
#	150
#	8164
#	21922
#	36734
#	49045
#	60442
#	76487
#	95771
#	110150
#	121479
#	130226
#	142655
#	158071
#	171769
#	183910
#	199822
#	210628
#	232148
#	245382
#	259071
#	271311
#	283275
#
# Disc length: 3937 seconds
#
# Revision: 1
# Processed by: cddbd v1.5.2PL0 Copyright (c) Steve Scherf et al.
# Submitted via: audiograbber 1.83.01
#
DISCID=440f5f16
DTITLE=E. H. King Music - E. H. King Music 083
DYEAR=2007
DGENRE=Country
TTITLE0=Pay Back Are Hell  - Jeannie Qualis
TTITLE1=Who Is That Eagle  - Jasper
TTITLE2=V A Tech´s Hero  - Loman Craig
TTITLE3=Walking Around With The Blues  - Willie Harris and Starla Dawn
TTITLE4=Your Fun´s Not Funny - Kitty Houston
TTITLE5=Lazy, Loafing And Leaving  - Loman Craig
TTITLE6=Stormy Nights  - Don Powell
TTITLE7=Will I Ever Writ A Country Song Again  - Kitty Houston
TTITLE8=Heading South  - Ray R Jones
TTITLE9=This Old Car - Dick Mosley
TTITLE10=Lord It Hurts  - Ray R Jones
TTITLE11=I´m Not Here  - William Sherr
TTITLE12=Break Your Own Record  - Phil Coley
TTITLE13=The Glory Train  - Ray R Jones
TTITLE14=God Made You  - Kitty Houston
TTITLE15=Cheese Easting Flea Marked Cowboy  - Buddy Max and John Pastuch
TTITLE16=I Lost Your Mind  - Roger Eydenburgh
TTITLE17=A Snitch In Crime Saves Hard Time - Jeff Hinson
TTITLE18=Blackburg´s Bleeding  - Ray R Jones
TTITLE19=The Tombstone  - Ray R Jones
TTITLE20=Thank God For Forgiveness - Joe Sharp
TTITLE21=The Lord And His Lending  - Barbara Doss
EXTD=
EXTT0=
EXTT1=
EXTT2=
EXTT3=
EXTT4=
EXTT5=
EXTT6=
EXTT7=
EXTT8=
EXTT9=
EXTT10=
EXTT11=
EXTT12=
EXTT13=
EXTT14=
EXTT15=
EXTT16=
EXTT17=
EXTT18=
EXTT19=
EXTT20=
EXTT21=
PLAYORDER=
